%TF.GenerationSoftware,KiCad,Pcbnew,9.0.2*%
%TF.CreationDate,2025-06-09T23:02:59-05:00*%
%TF.ProjectId,keyboard,6b657962-6f61-4726-942e-6b696361645f,rev?*%
%TF.SameCoordinates,Original*%
%TF.FileFunction,Copper,L2,Bot*%
%TF.FilePolarity,Positive*%
%FSLAX46Y46*%
G04 Gerber Fmt 4.6, Leading zero omitted, Abs format (unit mm)*
G04 Created by KiCad (PCBNEW 9.0.2) date 2025-06-09 23:02:59*
%MOMM*%
%LPD*%
G01*
G04 APERTURE LIST*
G04 Aperture macros list*
%AMRoundRect*
0 Rectangle with rounded corners*
0 $1 Rounding radius*
0 $2 $3 $4 $5 $6 $7 $8 $9 X,Y pos of 4 corners*
0 Add a 4 corners polygon primitive as box body*
4,1,4,$2,$3,$4,$5,$6,$7,$8,$9,$2,$3,0*
0 Add four circle primitives for the rounded corners*
1,1,$1+$1,$2,$3*
1,1,$1+$1,$4,$5*
1,1,$1+$1,$6,$7*
1,1,$1+$1,$8,$9*
0 Add four rect primitives between the rounded corners*
20,1,$1+$1,$2,$3,$4,$5,0*
20,1,$1+$1,$4,$5,$6,$7,0*
20,1,$1+$1,$6,$7,$8,$9,0*
20,1,$1+$1,$8,$9,$2,$3,0*%
%AMRotRect*
0 Rectangle, with rotation*
0 The origin of the aperture is its center*
0 $1 length*
0 $2 width*
0 $3 Rotation angle, in degrees counterclockwise*
0 Add horizontal line*
21,1,$1,$2,0,0,$3*%
G04 Aperture macros list end*
%TA.AperFunction,ComponentPad*%
%ADD10O,1.700000X1.700000*%
%TD*%
%TA.AperFunction,ComponentPad*%
%ADD11R,1.700000X1.700000*%
%TD*%
%TA.AperFunction,ComponentPad*%
%ADD12C,0.800000*%
%TD*%
%TA.AperFunction,ComponentPad*%
%ADD13C,6.400000*%
%TD*%
%TA.AperFunction,ComponentPad*%
%ADD14C,2.300000*%
%TD*%
%TA.AperFunction,ComponentPad*%
%ADD15RotRect,1.800000X1.800000X60.000000*%
%TD*%
%TA.AperFunction,ComponentPad*%
%ADD16C,1.800000*%
%TD*%
%TA.AperFunction,ComponentPad*%
%ADD17C,1.400000*%
%TD*%
%TA.AperFunction,ComponentPad*%
%ADD18RoundRect,0.250000X0.750000X-0.750000X0.750000X0.750000X-0.750000X0.750000X-0.750000X-0.750000X0*%
%TD*%
%TA.AperFunction,ComponentPad*%
%ADD19C,2.000000*%
%TD*%
%TA.AperFunction,ComponentPad*%
%ADD20RoundRect,0.250000X0.274519X-1.024519X1.024519X0.274519X-0.274519X1.024519X-1.024519X-0.274519X0*%
%TD*%
%TA.AperFunction,ComponentPad*%
%ADD21RoundRect,0.250000X0.961285X-0.448254X0.448254X0.961285X-0.961285X0.448254X-0.448254X-0.961285X0*%
%TD*%
%TA.AperFunction,ViaPad*%
%ADD22C,0.600000*%
%TD*%
%TA.AperFunction,Conductor*%
%ADD23C,0.200000*%
%TD*%
G04 APERTURE END LIST*
D10*
%TO.P,U1,1,GPIO0*%
%TO.N,unconnected-(U1-GPIO0-Pad1)*%
X192405000Y-21590000D03*
%TO.P,U1,2,GPIO1*%
%TO.N,unconnected-(U1-GPIO1-Pad2)*%
X192405000Y-24130000D03*
D11*
%TO.P,U1,3,GND*%
%TO.N,unconnected-(U1-GND-Pad3)*%
X192405000Y-26670000D03*
D10*
%TO.P,U1,4,GPIO2*%
%TO.N,unconnected-(U1-GPIO2-Pad4)*%
X192405000Y-29210000D03*
%TO.P,U1,5,GPIO3*%
%TO.N,Col1*%
X192405000Y-31750000D03*
%TO.P,U1,6,GPIO4*%
%TO.N,Col2*%
X192405000Y-34290000D03*
%TO.P,U1,7,GPIO5*%
%TO.N,Col3*%
X192405000Y-36830000D03*
D11*
%TO.P,U1,8,GND*%
%TO.N,unconnected-(U1-GND-Pad8)*%
X192405000Y-39370000D03*
D10*
%TO.P,U1,9,GPIO6*%
%TO.N,Col4*%
X192405000Y-41910000D03*
%TO.P,U1,10,GPIO7*%
%TO.N,Col5*%
X192405000Y-44450000D03*
%TO.P,U1,11,GPIO8*%
%TO.N,Col6*%
X192405000Y-46990000D03*
%TO.P,U1,12,GPIO9*%
%TO.N,Col7*%
X192405000Y-49530000D03*
D11*
%TO.P,U1,13,GND*%
%TO.N,unconnected-(U1-GND-Pad13)*%
X192405000Y-52070000D03*
D10*
%TO.P,U1,14,GPIO10*%
%TO.N,unconnected-(U1-GPIO10-Pad14)*%
X192405000Y-54610000D03*
%TO.P,U1,15,GPIO11*%
%TO.N,unconnected-(U1-GPIO11-Pad15)*%
X192405000Y-57150000D03*
%TO.P,U1,16,GPIO12*%
%TO.N,unconnected-(U1-GPIO12-Pad16)*%
X192405000Y-59690000D03*
%TO.P,U1,17,GPIO13*%
%TO.N,Row1*%
X192405000Y-62230000D03*
D11*
%TO.P,U1,18,GND*%
%TO.N,unconnected-(U1-GND-Pad18)*%
X192405000Y-64770000D03*
D10*
%TO.P,U1,19,GPIO14*%
%TO.N,Row2*%
X192405000Y-67310000D03*
%TO.P,U1,20,GPIO15*%
%TO.N,Row3*%
X192405000Y-69850000D03*
%TO.P,U1,21,GPIO16*%
%TO.N,Row4*%
X210185000Y-69850000D03*
%TO.P,U1,22,GPIO17*%
%TO.N,Row5*%
X210185000Y-67310000D03*
D11*
%TO.P,U1,23,GND*%
%TO.N,GND*%
X210185000Y-64770000D03*
D10*
%TO.P,U1,24,GPIO18*%
%TO.N,Row6*%
X210185000Y-62230000D03*
%TO.P,U1,25,GPIO19*%
%TO.N,LED1*%
X210185000Y-59690000D03*
%TO.P,U1,26,GPIO20*%
%TO.N,LED2*%
X210185000Y-57150000D03*
%TO.P,U1,27,GPIO21*%
%TO.N,LED3*%
X210185000Y-54610000D03*
D11*
%TO.P,U1,28,GND*%
%TO.N,unconnected-(U1-GND-Pad28)*%
X210185000Y-52070000D03*
D10*
%TO.P,U1,29,GPIO22*%
%TO.N,unconnected-(U1-GPIO22-Pad29)*%
X210185000Y-49530000D03*
%TO.P,U1,30,RUN*%
%TO.N,unconnected-(U1-RUN-Pad30)*%
X210185000Y-46990000D03*
%TO.P,U1,31,GPIO26_ADC0*%
%TO.N,unconnected-(U1-GPIO26_ADC0-Pad31)*%
X210185000Y-44450000D03*
%TO.P,U1,32,GPIO27_ADC1*%
%TO.N,unconnected-(U1-GPIO27_ADC1-Pad32)*%
X210185000Y-41910000D03*
D11*
%TO.P,U1,33,AGND*%
%TO.N,unconnected-(U1-AGND-Pad33)*%
X210185000Y-39370000D03*
D10*
%TO.P,U1,34,GPIO28_ADC2*%
%TO.N,unconnected-(U1-GPIO28_ADC2-Pad34)*%
X210185000Y-36830000D03*
%TO.P,U1,35,ADC_VREF*%
%TO.N,unconnected-(U1-ADC_VREF-Pad35)*%
X210185000Y-34290000D03*
%TO.P,U1,36,3V3*%
%TO.N,unconnected-(U1-3V3-Pad36)*%
X210185000Y-31750000D03*
%TO.P,U1,37,3V3_EN*%
%TO.N,unconnected-(U1-3V3_EN-Pad37)*%
X210185000Y-29210000D03*
D11*
%TO.P,U1,38,GND*%
%TO.N,unconnected-(U1-GND-Pad38)*%
X210185000Y-26670000D03*
D10*
%TO.P,U1,39,VSYS*%
%TO.N,unconnected-(U1-VSYS-Pad39)*%
X210185000Y-24130000D03*
%TO.P,U1,40,VBUS*%
%TO.N,unconnected-(U1-VBUS-Pad40)*%
X210185000Y-21590000D03*
%TO.P,U1,41,SWCLK*%
%TO.N,unconnected-(U1-SWCLK-Pad41)*%
X198755000Y-69620000D03*
D11*
%TO.P,U1,42,GND*%
%TO.N,unconnected-(U1-GND-Pad42)*%
X201295000Y-69620000D03*
D10*
%TO.P,U1,43,SWDIO*%
%TO.N,unconnected-(U1-SWDIO-Pad43)*%
X203835000Y-69620000D03*
%TD*%
D12*
%TO.P,H4,1*%
%TO.N,N/C*%
X177940000Y-154305000D03*
X178642944Y-152607944D03*
X178642944Y-156002056D03*
X180340000Y-151905000D03*
D13*
X180340000Y-154305000D03*
D12*
X180340000Y-156705000D03*
X182037056Y-152607944D03*
X182037056Y-156002056D03*
X182740000Y-154305000D03*
%TD*%
%TO.P,H3,1*%
%TO.N,N/C*%
X211595000Y-84760000D03*
X212297944Y-83062944D03*
X212297944Y-86457056D03*
X213995000Y-82360000D03*
D13*
X213995000Y-84760000D03*
D12*
X213995000Y-87160000D03*
X215692056Y-83062944D03*
X215692056Y-86457056D03*
X216395000Y-84760000D03*
%TD*%
%TO.P,H2,1*%
%TO.N,N/C*%
X92990000Y-92710000D03*
X93692944Y-91012944D03*
X93692944Y-94407056D03*
X95390000Y-90310000D03*
D13*
X95390000Y-92710000D03*
D12*
X95390000Y-95110000D03*
X97087056Y-91012944D03*
X97087056Y-94407056D03*
X97790000Y-92710000D03*
%TD*%
%TO.P,H1,1*%
%TO.N,N/C*%
X92990000Y-25400000D03*
X93692944Y-23702944D03*
X93692944Y-27097056D03*
X95390000Y-23000000D03*
D13*
X95390000Y-25400000D03*
D12*
X95390000Y-27800000D03*
X97087056Y-23702944D03*
X97087056Y-27097056D03*
X97790000Y-25400000D03*
%TD*%
D14*
%TO.P,MX3,1,1*%
%TO.N,Col3*%
X74451770Y-34891156D03*
%TO.P,MX3,2,2*%
%TO.N,Net-(D3-A)*%
X79550087Y-30332509D03*
%TD*%
%TO.P,MX10,1,1*%
%TO.N,Col4*%
X109855000Y-27305000D03*
%TO.P,MX10,2,2*%
%TO.N,Net-(D10-A)*%
X116205000Y-24765000D03*
%TD*%
%TO.P,MX25,1,1*%
%TO.N,Col6*%
X169096847Y-92726699D03*
%TO.P,MX25,2,2*%
%TO.N,Net-(D25-A)*%
X175866109Y-93701995D03*
%TD*%
D15*
%TO.P,D22,1,K*%
%TO.N,GND*%
X202565000Y-116694285D03*
D16*
%TO.P,D22,2,A*%
%TO.N,Net-(D22-A)*%
X203835000Y-114494580D03*
%TD*%
D15*
%TO.P,D32,1,K*%
%TO.N,GND*%
X183515000Y-149689853D03*
D16*
%TO.P,D32,2,A*%
%TO.N,Net-(D32-A)*%
X184785000Y-147490148D03*
%TD*%
D14*
%TO.P,MX29,1,1*%
%TO.N,Col7*%
X176069631Y-118749483D03*
%TO.P,MX29,2,2*%
%TO.N,Net-(D29-A)*%
X182838893Y-119724779D03*
%TD*%
%TO.P,MX15,1,1*%
%TO.N,Col5*%
X128905000Y-65405000D03*
%TO.P,MX15,2,2*%
%TO.N,Net-(D15-A)*%
X135255000Y-62865000D03*
%TD*%
D17*
%TO.P,R2,1*%
%TO.N,LED2*%
X198120000Y-124393251D03*
%TO.P,R2,2*%
%TO.N,Net-(D31-A)*%
X195580000Y-128792660D03*
%TD*%
D14*
%TO.P,MX19,1,1*%
%TO.N,Col7*%
X167005000Y-27305000D03*
%TO.P,MX19,2,2*%
%TO.N,Net-(D19-A)*%
X173355000Y-24765000D03*
%TD*%
%TO.P,MX16,1,1*%
%TO.N,Col6*%
X147955000Y-27305000D03*
%TO.P,MX16,2,2*%
%TO.N,Net-(D16-A)*%
X154305000Y-24765000D03*
%TD*%
%TO.P,MX4,1,1*%
%TO.N,Col1*%
X45164965Y-65823268D03*
%TO.P,MX4,2,2*%
%TO.N,Net-(D4-A)*%
X50263282Y-61264621D03*
%TD*%
%TO.P,MX17,1,1*%
%TO.N,Col6*%
X147955000Y-46355000D03*
%TO.P,MX17,2,2*%
%TO.N,Net-(D17-A)*%
X154305000Y-43815000D03*
%TD*%
%TO.P,MX8,1,1*%
%TO.N,Col2*%
X69581593Y-77208928D03*
%TO.P,MX8,2,2*%
%TO.N,Net-(D8-A)*%
X74679910Y-72650281D03*
%TD*%
%TO.P,MX23,1,1*%
%TO.N,Col5*%
X143074063Y-99699483D03*
%TO.P,MX23,2,2*%
%TO.N,Net-(D23-A)*%
X149843325Y-100674779D03*
%TD*%
%TO.P,MX18,1,1*%
%TO.N,Col6*%
X147955000Y-65405000D03*
%TO.P,MX18,2,2*%
%TO.N,Net-(D18-A)*%
X154305000Y-62865000D03*
%TD*%
%TO.P,MX24,1,1*%
%TO.N,Col5*%
X133549063Y-116197267D03*
%TO.P,MX24,2,2*%
%TO.N,Net-(D24-A)*%
X140318325Y-117172563D03*
%TD*%
%TO.P,MX9,1,1*%
%TO.N,Col3*%
X87482737Y-70693444D03*
%TO.P,MX9,2,2*%
%TO.N,Net-(D9-A)*%
X92581054Y-66134797D03*
%TD*%
%TO.P,MX20,1,1*%
%TO.N,Col7*%
X167005000Y-46355000D03*
%TO.P,MX20,2,2*%
%TO.N,Net-(D20-A)*%
X173355000Y-43815000D03*
%TD*%
D17*
%TO.P,R1,1*%
%TO.N,LED1*%
X207645000Y-107895467D03*
%TO.P,R1,2*%
%TO.N,Net-(D22-A)*%
X205105000Y-112294876D03*
%TD*%
D14*
%TO.P,MX11,1,1*%
%TO.N,Col4*%
X109855000Y-46355000D03*
%TO.P,MX11,2,2*%
%TO.N,Net-(D11-A)*%
X116205000Y-43815000D03*
%TD*%
D15*
%TO.P,D31,1,K*%
%TO.N,GND*%
X193040000Y-133192069D03*
D16*
%TO.P,D31,2,A*%
%TO.N,Net-(D31-A)*%
X194310000Y-130992364D03*
%TD*%
D17*
%TO.P,R3,1*%
%TO.N,LED3*%
X188912500Y-140341109D03*
%TO.P,R3,2*%
%TO.N,Net-(D32-A)*%
X186372500Y-144740518D03*
%TD*%
D14*
%TO.P,MX6,1,1*%
%TO.N,Col3*%
X80967254Y-52792300D03*
%TO.P,MX6,2,2*%
%TO.N,Net-(D6-A)*%
X86065571Y-48233653D03*
%TD*%
%TO.P,MX12,1,1*%
%TO.N,Col4*%
X109855000Y-65405000D03*
%TO.P,MX12,2,2*%
%TO.N,Net-(D12-A)*%
X116205000Y-62865000D03*
%TD*%
%TO.P,MX7,1,1*%
%TO.N,Col1*%
X51680449Y-83724412D03*
%TO.P,MX7,2,2*%
%TO.N,Net-(D7-A)*%
X56778766Y-79165765D03*
%TD*%
%TO.P,MX30,1,1*%
%TO.N,Col7*%
X166544631Y-135247267D03*
%TO.P,MX30,2,2*%
%TO.N,Net-(D30-A)*%
X173313893Y-136222563D03*
%TD*%
%TO.P,MX27,1,1*%
%TO.N,Col6*%
X150046847Y-125722267D03*
%TO.P,MX27,2,2*%
%TO.N,Net-(D27-A)*%
X156816109Y-126697563D03*
%TD*%
%TO.P,MX2,1,1*%
%TO.N,Col2*%
X56550626Y-41406639D03*
%TO.P,MX2,2,2*%
%TO.N,Net-(D2-A)*%
X61648943Y-36847992D03*
%TD*%
%TO.P,MX26,1,1*%
%TO.N,Col6*%
X159571847Y-109224483D03*
%TO.P,MX26,2,2*%
%TO.N,Net-(D26-A)*%
X166341109Y-110199779D03*
%TD*%
%TO.P,MX21,1,1*%
%TO.N,Col7*%
X167005000Y-65405000D03*
%TO.P,MX21,2,2*%
%TO.N,Net-(D21-A)*%
X173355000Y-62865000D03*
%TD*%
%TO.P,MX1,1,1*%
%TO.N,Col1*%
X38649481Y-47922123D03*
%TO.P,MX1,2,2*%
%TO.N,Net-(D1-A)*%
X43747798Y-43363476D03*
%TD*%
%TO.P,MX5,1,1*%
%TO.N,Col2*%
X63066109Y-59307784D03*
%TO.P,MX5,2,2*%
%TO.N,Net-(D5-A)*%
X68164426Y-54749137D03*
%TD*%
%TO.P,MX28,1,1*%
%TO.N,Col7*%
X185594631Y-102251699D03*
%TO.P,MX28,2,2*%
%TO.N,Net-(D28-A)*%
X192363893Y-103226995D03*
%TD*%
%TO.P,MX14,1,1*%
%TO.N,Col5*%
X128905000Y-46355000D03*
%TO.P,MX14,2,2*%
%TO.N,Net-(D14-A)*%
X135255000Y-43815000D03*
%TD*%
%TO.P,MX13,1,1*%
%TO.N,Col5*%
X128905000Y-27305000D03*
%TO.P,MX13,2,2*%
%TO.N,Net-(D13-A)*%
X135255000Y-24765000D03*
%TD*%
D18*
%TO.P,D13,1,K*%
%TO.N,Row1*%
X142240000Y-39370000D03*
D19*
%TO.P,D13,2,A*%
%TO.N,Net-(D13-A)*%
X142240000Y-34290000D03*
%TD*%
D18*
%TO.P,D19,1,K*%
%TO.N,Row1*%
X180340000Y-39370000D03*
D19*
%TO.P,D19,2,A*%
%TO.N,Net-(D19-A)*%
X180340000Y-34290000D03*
%TD*%
D20*
%TO.P,D23,1,K*%
%TO.N,Row5*%
X148590012Y-116815580D03*
D19*
%TO.P,D23,2,A*%
%TO.N,Net-(D23-A)*%
X151130012Y-112416171D03*
%TD*%
D21*
%TO.P,D9,1,K*%
%TO.N,Row3*%
X104140012Y-77469998D03*
D19*
%TO.P,D9,2,A*%
%TO.N,Net-(D9-A)*%
X102402550Y-72696359D03*
%TD*%
D21*
%TO.P,D6,1,K*%
%TO.N,Row2*%
X97624528Y-59568853D03*
D19*
%TO.P,D6,2,A*%
%TO.N,Net-(D6-A)*%
X95887066Y-54795214D03*
%TD*%
D20*
%TO.P,D24,1,K*%
%TO.N,Row6*%
X139065012Y-133313364D03*
D19*
%TO.P,D24,2,A*%
%TO.N,Net-(D24-A)*%
X141605012Y-128913955D03*
%TD*%
D18*
%TO.P,D14,1,K*%
%TO.N,Row2*%
X142240000Y-58420000D03*
D19*
%TO.P,D14,2,A*%
%TO.N,Net-(D14-A)*%
X142240000Y-53340000D03*
%TD*%
D21*
%TO.P,D8,1,K*%
%TO.N,Row3*%
X86238867Y-83985482D03*
D19*
%TO.P,D8,2,A*%
%TO.N,Net-(D8-A)*%
X84501405Y-79211843D03*
%TD*%
D20*
%TO.P,D25,1,K*%
%TO.N,Row4*%
X174612796Y-109842796D03*
D19*
%TO.P,D25,2,A*%
%TO.N,Net-(D25-A)*%
X177152796Y-105443387D03*
%TD*%
D20*
%TO.P,D28,1,K*%
%TO.N,Row4*%
X191110580Y-119367796D03*
D19*
%TO.P,D28,2,A*%
%TO.N,Net-(D28-A)*%
X193650580Y-114968387D03*
%TD*%
D18*
%TO.P,D17,1,K*%
%TO.N,Row2*%
X161290000Y-58420000D03*
D19*
%TO.P,D17,2,A*%
%TO.N,Net-(D17-A)*%
X161290000Y-53340000D03*
%TD*%
D21*
%TO.P,D3,1,K*%
%TO.N,Row1*%
X91109044Y-41667709D03*
D19*
%TO.P,D3,2,A*%
%TO.N,Net-(D3-A)*%
X89371582Y-36894070D03*
%TD*%
D18*
%TO.P,D21,1,K*%
%TO.N,Row3*%
X180340000Y-77470000D03*
D19*
%TO.P,D21,2,A*%
%TO.N,Net-(D21-A)*%
X180340000Y-72390000D03*
%TD*%
D20*
%TO.P,D30,1,K*%
%TO.N,Row6*%
X172060580Y-152363364D03*
D19*
%TO.P,D30,2,A*%
%TO.N,Net-(D30-A)*%
X174600580Y-147963955D03*
%TD*%
D20*
%TO.P,D26,1,K*%
%TO.N,Row5*%
X165087796Y-126340580D03*
D19*
%TO.P,D26,2,A*%
%TO.N,Net-(D26-A)*%
X167627796Y-121941171D03*
%TD*%
D21*
%TO.P,D2,1,K*%
%TO.N,Row1*%
X73207900Y-48183193D03*
D19*
%TO.P,D2,2,A*%
%TO.N,Net-(D2-A)*%
X71470438Y-43409554D03*
%TD*%
D18*
%TO.P,D12,1,K*%
%TO.N,Row3*%
X123190000Y-77470000D03*
D19*
%TO.P,D12,2,A*%
%TO.N,Net-(D12-A)*%
X123190000Y-72390000D03*
%TD*%
D21*
%TO.P,D4,1,K*%
%TO.N,Row2*%
X61822239Y-72599821D03*
D19*
%TO.P,D4,2,A*%
%TO.N,Net-(D4-A)*%
X60084777Y-67826182D03*
%TD*%
D18*
%TO.P,D18,1,K*%
%TO.N,Row3*%
X161290000Y-77470000D03*
D19*
%TO.P,D18,2,A*%
%TO.N,Net-(D18-A)*%
X161290000Y-72390000D03*
%TD*%
D18*
%TO.P,D20,1,K*%
%TO.N,Row2*%
X180340000Y-58420000D03*
D19*
%TO.P,D20,2,A*%
%TO.N,Net-(D20-A)*%
X180340000Y-53340000D03*
%TD*%
D20*
%TO.P,D27,1,K*%
%TO.N,Row6*%
X155562796Y-142838364D03*
D19*
%TO.P,D27,2,A*%
%TO.N,Net-(D27-A)*%
X158102796Y-138438955D03*
%TD*%
D20*
%TO.P,D29,1,K*%
%TO.N,Row5*%
X181585580Y-135865580D03*
D19*
%TO.P,D29,2,A*%
%TO.N,Net-(D29-A)*%
X184125580Y-131466171D03*
%TD*%
D18*
%TO.P,D10,1,K*%
%TO.N,Row1*%
X123190000Y-39370000D03*
D19*
%TO.P,D10,2,A*%
%TO.N,Net-(D10-A)*%
X123190000Y-34290000D03*
%TD*%
D21*
%TO.P,D5,1,K*%
%TO.N,Row2*%
X79723383Y-66084337D03*
D19*
%TO.P,D5,2,A*%
%TO.N,Net-(D5-A)*%
X77985921Y-61310698D03*
%TD*%
D21*
%TO.P,D7,1,K*%
%TO.N,Row3*%
X68337723Y-90500965D03*
D19*
%TO.P,D7,2,A*%
%TO.N,Net-(D7-A)*%
X66600261Y-85727326D03*
%TD*%
D18*
%TO.P,D11,1,K*%
%TO.N,Row2*%
X123190000Y-58420000D03*
D19*
%TO.P,D11,2,A*%
%TO.N,Net-(D11-A)*%
X123190000Y-53340000D03*
%TD*%
D21*
%TO.P,D1,1,K*%
%TO.N,Row1*%
X55306755Y-53779485D03*
D19*
%TO.P,D1,2,A*%
%TO.N,Net-(D1-A)*%
X53569293Y-49005846D03*
%TD*%
D18*
%TO.P,D15,1,K*%
%TO.N,Row3*%
X142240000Y-77470000D03*
D19*
%TO.P,D15,2,A*%
%TO.N,Net-(D15-A)*%
X142240000Y-72390000D03*
%TD*%
D18*
%TO.P,D16,1,K*%
%TO.N,Row1*%
X161290000Y-39370000D03*
D19*
%TO.P,D16,2,A*%
%TO.N,Net-(D16-A)*%
X161290000Y-34290000D03*
%TD*%
D22*
%TO.N,Col5*%
X138430000Y-83820000D03*
X138430000Y-78740000D03*
%TO.N,Col6*%
X147955000Y-78740000D03*
X147955000Y-83820000D03*
%TO.N,Col7*%
X170815000Y-78740000D03*
X170815000Y-83820000D03*
%TD*%
D23*
%TO.N,Row1*%
X161290000Y-39370000D02*
X180340000Y-39370000D01*
X185420000Y-62230000D02*
X192405000Y-62230000D01*
X123190000Y-39370000D02*
X142240000Y-39370000D01*
X101657709Y-41667709D02*
X101675000Y-41685000D01*
X185420000Y-39370000D02*
X185420000Y-62230000D01*
X101675000Y-41685000D02*
X103990000Y-39370000D01*
X73207900Y-48183193D02*
X91109044Y-41667709D01*
X180340000Y-39370000D02*
X185420000Y-39370000D01*
X91109044Y-41667709D02*
X101657709Y-41667709D01*
X103990000Y-39370000D02*
X123190000Y-39370000D01*
X142240000Y-39370000D02*
X161290000Y-39370000D01*
X55306755Y-54698676D02*
X73207900Y-48183193D01*
%TO.N,Net-(D1-A)*%
X43747798Y-43363476D02*
X47924732Y-41843197D01*
X51180282Y-43361285D02*
X53569293Y-49925038D01*
X47924732Y-41843197D02*
X51180282Y-43361285D01*
%TO.N,Net-(D2-A)*%
X69081427Y-36845801D02*
X71470437Y-43409554D01*
X65825876Y-35327713D02*
X69081427Y-36845801D01*
X61648943Y-36847993D02*
X65825876Y-35327713D01*
%TO.N,Net-(D3-A)*%
X83727021Y-28812229D02*
X86982571Y-30330318D01*
X79550087Y-30332509D02*
X83727021Y-28812229D01*
X86982571Y-30330318D02*
X89371582Y-36894070D01*
%TO.N,Net-(D4-A)*%
X57695766Y-61262429D02*
X60084777Y-67826182D01*
X54440216Y-59744341D02*
X57695766Y-61262429D01*
X50263282Y-61264621D02*
X54440216Y-59744341D01*
%TO.N,Row2*%
X184150000Y-58420000D02*
X184150000Y-67310000D01*
X61822239Y-72599821D02*
X79723383Y-66084337D01*
X142240000Y-58420000D02*
X161290000Y-58420000D01*
X180340000Y-58420000D02*
X184150000Y-58420000D01*
X103626147Y-59568853D02*
X104775000Y-58420000D01*
X184150000Y-67310000D02*
X192405000Y-67310000D01*
X104775000Y-58420000D02*
X123190000Y-58420000D01*
X161290000Y-58420000D02*
X180340000Y-58420000D01*
X123190000Y-58420000D02*
X142240000Y-58420000D01*
X97624528Y-59568853D02*
X103626147Y-59568853D01*
X79723383Y-66084337D02*
X97624528Y-59568853D01*
%TO.N,Net-(D5-A)*%
X75596910Y-54746946D02*
X77985921Y-61310699D01*
X68164426Y-54749137D02*
X72341360Y-53228858D01*
X72341360Y-53228858D02*
X75596910Y-54746946D01*
%TO.N,Net-(D6-A)*%
X93498055Y-48231462D02*
X95887066Y-54795215D01*
X90242504Y-46713374D02*
X93498055Y-48231462D01*
X86065571Y-48233653D02*
X90242504Y-46713374D01*
%TO.N,Row3*%
X185420000Y-69850000D02*
X192405000Y-69850000D01*
X185420000Y-77470000D02*
X185420000Y-69850000D01*
X161290000Y-77470000D02*
X180340000Y-77470000D01*
X142240000Y-77470000D02*
X161290000Y-77470000D01*
X68337723Y-90500965D02*
X86238867Y-83985482D01*
X180340000Y-77470000D02*
X185420000Y-77470000D01*
X123190000Y-77470000D02*
X142240000Y-77470000D01*
X86238867Y-83985482D02*
X104140012Y-77469998D01*
X123189998Y-77469998D02*
X123190000Y-77470000D01*
X104140012Y-77469998D02*
X123189998Y-77469998D01*
%TO.N,Net-(D7-A)*%
X60955699Y-77645486D02*
X64211250Y-79163574D01*
X56778766Y-79165765D02*
X60955699Y-77645486D01*
X64211250Y-79163574D02*
X66600260Y-85727327D01*
%TO.N,Net-(D8-A)*%
X82112394Y-72648090D02*
X84501405Y-79211843D01*
X74679910Y-72650282D02*
X78856844Y-71130002D01*
X78856844Y-71130002D02*
X82112394Y-72648090D01*
%TO.N,Net-(D9-A)*%
X100013539Y-66132606D02*
X102402549Y-72696359D01*
X92581054Y-66134798D02*
X96757988Y-64614518D01*
X96757988Y-64614518D02*
X100013539Y-66132606D01*
%TO.N,Net-(D10-A)*%
X123190000Y-27305000D02*
X123190000Y-34290000D01*
X120650000Y-24765000D02*
X123190000Y-27305000D01*
X116205000Y-24765000D02*
X120650000Y-24765000D01*
%TO.N,Net-(D11-A)*%
X123190000Y-46355000D02*
X123190000Y-53340000D01*
X120650000Y-43815000D02*
X123190000Y-46355000D01*
X116205000Y-43815000D02*
X120650000Y-43815000D01*
%TO.N,Net-(D12-A)*%
X116205000Y-62865000D02*
X120650000Y-62865000D01*
X120650000Y-62865000D02*
X123190000Y-65405000D01*
X123190000Y-65405000D02*
X123190000Y-72390000D01*
%TO.N,Net-(D13-A)*%
X142240000Y-27305000D02*
X142240000Y-34290000D01*
X135255000Y-24765000D02*
X139700000Y-24765000D01*
X139700000Y-24765000D02*
X142240000Y-27305000D01*
%TO.N,Net-(D14-A)*%
X139700000Y-43815000D02*
X142240000Y-46355000D01*
X142240000Y-46355000D02*
X142240000Y-53340000D01*
X135255000Y-43815000D02*
X139700000Y-43815000D01*
%TO.N,Net-(D15-A)*%
X139700000Y-62865000D02*
X142240000Y-65405000D01*
X135255000Y-62865000D02*
X139700000Y-62865000D01*
X142240000Y-65405000D02*
X142240000Y-72390000D01*
%TO.N,Net-(D16-A)*%
X154305000Y-24765000D02*
X158750000Y-24765000D01*
X158750000Y-24765000D02*
X161290000Y-27305000D01*
X161290000Y-27305000D02*
X161290000Y-34290000D01*
%TO.N,Net-(D17-A)*%
X158750000Y-43815000D02*
X161290000Y-46355000D01*
X161290000Y-46355000D02*
X161290000Y-53340000D01*
X154305000Y-43815000D02*
X158750000Y-43815000D01*
%TO.N,Net-(D18-A)*%
X154305000Y-62865000D02*
X158750000Y-62865000D01*
X161290000Y-65405000D02*
X161290000Y-72390000D01*
X158750000Y-62865000D02*
X161290000Y-65405000D01*
%TO.N,Net-(D19-A)*%
X180340000Y-27305000D02*
X180340000Y-34290000D01*
X173355000Y-24765000D02*
X177800000Y-24765000D01*
X177800000Y-24765000D02*
X180340000Y-27305000D01*
%TO.N,Net-(D20-A)*%
X173355000Y-43815000D02*
X177800000Y-43815000D01*
X177800000Y-43815000D02*
X180340000Y-46355000D01*
X180340000Y-46355000D02*
X180340000Y-53340000D01*
%TO.N,Net-(D21-A)*%
X177800000Y-62865000D02*
X180340000Y-65405000D01*
X173355000Y-62865000D02*
X177800000Y-62865000D01*
X180340000Y-65405000D02*
X180340000Y-72390000D01*
%TO.N,Net-(D23-A)*%
X153692808Y-102897279D02*
X154622512Y-106366984D01*
X149843325Y-100674779D02*
X153692808Y-102897279D01*
X154622512Y-106366984D02*
X151130012Y-112416171D01*
%TO.N,Net-(D24-A)*%
X145097512Y-122864767D02*
X141605012Y-128913955D01*
X144167808Y-119395063D02*
X145097512Y-122864767D01*
X140318325Y-117172563D02*
X144167808Y-119395063D01*
%TO.N,Net-(D25-A)*%
X175866109Y-93701995D02*
X179715591Y-95924495D01*
X180645296Y-99394200D02*
X177152796Y-105443387D01*
X179715591Y-95924495D02*
X180645296Y-99394200D01*
%TO.N,Net-(D26-A)*%
X166341109Y-110199779D02*
X170190591Y-112422279D01*
X171120296Y-115891984D02*
X167627796Y-121941171D01*
X170190591Y-112422279D02*
X171120296Y-115891984D01*
%TO.N,Net-(D27-A)*%
X156816109Y-126697563D02*
X160665591Y-128920063D01*
X160665591Y-128920063D02*
X161595296Y-132389767D01*
X161595296Y-132389767D02*
X158102796Y-138438955D01*
%TO.N,Net-(D28-A)*%
X196213375Y-105449495D02*
X192363892Y-103226995D01*
X193650580Y-114968387D02*
X197143080Y-108919200D01*
X197143080Y-108919200D02*
X196213375Y-105449495D01*
%TO.N,Net-(D29-A)*%
X182838892Y-119724779D02*
X186688375Y-121947279D01*
X187618080Y-125416984D02*
X184125580Y-131466171D01*
X186688375Y-121947279D02*
X187618080Y-125416984D01*
%TO.N,Net-(D30-A)*%
X173313892Y-136222563D02*
X177163375Y-138445063D01*
X177163375Y-138445063D02*
X178093080Y-141914767D01*
X178093080Y-141914767D02*
X174600580Y-147963955D01*
%TO.N,Col5*%
X138430000Y-78740000D02*
X138430000Y-83820000D01*
%TO.N,Row5*%
X148590012Y-116815580D02*
X144755580Y-116815580D01*
X187325000Y-86995000D02*
X198755000Y-75565000D01*
X198755000Y-75565000D02*
X206375000Y-75565000D01*
X206375000Y-75565000D02*
X207645000Y-74295000D01*
X148590012Y-116815580D02*
X165087796Y-126340580D01*
X207645000Y-74295000D02*
X207645000Y-67945000D01*
X129540000Y-101600000D02*
X129540000Y-96520000D01*
X129540000Y-96520000D02*
X139065000Y-86995000D01*
X144755580Y-116815580D02*
X129540000Y-101600000D01*
X139065000Y-86995000D02*
X187325000Y-86995000D01*
X207645000Y-67945000D02*
X208280000Y-67310000D01*
X208280000Y-67310000D02*
X210185000Y-67310000D01*
X165087796Y-126340580D02*
X181585580Y-135865580D01*
%TO.N,Row6*%
X155562796Y-142838364D02*
X172060580Y-152363364D01*
X172060580Y-152363364D02*
X172121636Y-152424420D01*
X206375000Y-73025000D02*
X206375000Y-63500000D01*
X139065012Y-133313364D02*
X155562796Y-142838364D01*
X198120000Y-74295000D02*
X205105000Y-74295000D01*
X205105000Y-74295000D02*
X206375000Y-73025000D01*
X186690000Y-85725000D02*
X198120000Y-74295000D01*
X137123364Y-133313364D02*
X124460000Y-120650000D01*
X139065012Y-133313364D02*
X137123364Y-133313364D01*
X124460000Y-120650000D02*
X124460000Y-99060000D01*
X137795000Y-85725000D02*
X186690000Y-85725000D01*
X124460000Y-99060000D02*
X137795000Y-85725000D01*
X207645000Y-62230000D02*
X210185000Y-62230000D01*
X206375000Y-63500000D02*
X207645000Y-62230000D01*
%TO.N,Row4*%
X199390000Y-76835000D02*
X207010000Y-76835000D01*
X169532796Y-109842796D02*
X160020000Y-100330000D01*
X160020000Y-90805000D02*
X162560000Y-88265000D01*
X207010000Y-76835000D02*
X208915000Y-74930000D01*
X174612796Y-109842796D02*
X191110580Y-119367796D01*
X208915000Y-71120000D02*
X210185000Y-69850000D01*
X162560000Y-88265000D02*
X187960000Y-88265000D01*
X160020000Y-100330000D02*
X160020000Y-90805000D01*
X174612796Y-109842796D02*
X169532796Y-109842796D01*
X208915000Y-74930000D02*
X208915000Y-71120000D01*
X187960000Y-88265000D02*
X199390000Y-76835000D01*
%TO.N,Col6*%
X147955000Y-78740000D02*
X147955000Y-83820000D01*
%TO.N,Col7*%
X170815000Y-78740000D02*
X170815000Y-83820000D01*
%TO.N,GND*%
X183515000Y-149689853D02*
X180215443Y-147784853D01*
X213360000Y-73025000D02*
X208915000Y-77470000D01*
X202565000Y-116694285D02*
X199265443Y-114789285D01*
X210185000Y-64770000D02*
X213360000Y-64770000D01*
X208915000Y-77470000D02*
X208915000Y-100026353D01*
X193040000Y-133192069D02*
X189740443Y-131287069D01*
X180215443Y-147784853D02*
X189740443Y-131287069D01*
X199265443Y-114789285D02*
X206250443Y-102690910D01*
X213360000Y-64770000D02*
X213360000Y-73025000D01*
X208915000Y-100026353D02*
X206250443Y-102690910D01*
X189740443Y-131287069D02*
X199265443Y-114789285D01*
%TD*%
M02*
