M48
; DRILL file {KiCad 9.0.2} date 2025-06-09T23:03:06-0500
; FORMAT={-:-/ absolute / metric / decimal}
; #@! TF.CreationDate,2025-06-09T23:03:06-05:00
; #@! TF.GenerationSoftware,Kicad,Pcbnew,9.0.2
; #@! TF.FileFunction,Plated,1,2,PTH
FMAT,2
METRIC
; #@! TA.AperFunction,Plated,PTH,ViaDrill
T1C0.300
; #@! TA.AperFunction,Plated,PTH,ComponentDrill
T2C0.500
; #@! TA.AperFunction,Plated,PTH,ComponentDrill
T3C0.700
; #@! TA.AperFunction,Plated,PTH,ComponentDrill
T4C0.900
; #@! TA.AperFunction,Plated,PTH,ComponentDrill
T5C1.000
; #@! TA.AperFunction,Plated,PTH,ComponentDrill
T6C1.020
; #@! TA.AperFunction,Plated,PTH,ComponentDrill
T7C1.524
; #@! TA.AperFunction,Plated,PTH,ComponentDrill
T8C3.200
%
G90
G05
T1
X138.43Y-78.74
X138.43Y-83.82
X147.955Y-78.74
X147.955Y-83.82
X170.815Y-78.74
X170.815Y-83.82
T2
X92.99Y-25.4
X92.99Y-92.71
X93.693Y-23.703
X93.693Y-27.097
X93.693Y-91.013
X93.693Y-94.407
X95.39Y-23.0
X95.39Y-27.8
X95.39Y-90.31
X95.39Y-95.11
X97.087Y-23.703
X97.087Y-27.097
X97.087Y-91.013
X97.087Y-94.407
X97.79Y-25.4
X97.79Y-92.71
X177.94Y-154.305
X178.643Y-152.608
X178.643Y-156.002
X180.34Y-151.905
X180.34Y-156.705
X182.037Y-152.608
X182.037Y-156.002
X182.74Y-154.305
X211.595Y-84.76
X212.298Y-83.063
X212.298Y-86.457
X213.995Y-82.36
X213.995Y-87.16
X215.692Y-83.063
X215.692Y-86.457
X216.395Y-84.76
T3
X186.373Y-144.741
X188.912Y-140.341
X195.58Y-128.793
X198.12Y-124.393
X205.105Y-112.295
X207.645Y-107.895
T4
X183.515Y-149.69
X184.785Y-147.49
X193.04Y-133.192
X194.31Y-130.992
X202.565Y-116.694
X203.835Y-114.495
T5
X53.569Y-49.006
X55.307Y-53.779
X60.085Y-67.826
X61.822Y-72.6
X66.6Y-85.727
X68.338Y-90.501
X71.47Y-43.41
X73.208Y-48.183
X77.986Y-61.311
X79.723Y-66.084
X84.501Y-79.212
X86.239Y-83.985
X89.372Y-36.894
X91.109Y-41.668
X95.887Y-54.795
X97.625Y-59.569
X102.403Y-72.696
X104.14Y-77.47
X123.19Y-34.29
X123.19Y-39.37
X123.19Y-53.34
X123.19Y-58.42
X123.19Y-72.39
X123.19Y-77.47
X139.065Y-133.313
X141.605Y-128.914
X142.24Y-34.29
X142.24Y-39.37
X142.24Y-53.34
X142.24Y-58.42
X142.24Y-72.39
X142.24Y-77.47
X148.59Y-116.816
X151.13Y-112.416
X155.563Y-142.838
X158.103Y-138.439
X161.29Y-34.29
X161.29Y-39.37
X161.29Y-53.34
X161.29Y-58.42
X161.29Y-72.39
X161.29Y-77.47
X165.088Y-126.341
X167.628Y-121.941
X172.061Y-152.363
X174.601Y-147.964
X174.613Y-109.843
X177.153Y-105.443
X180.34Y-34.29
X180.34Y-39.37
X180.34Y-53.34
X180.34Y-58.42
X180.34Y-72.39
X180.34Y-77.47
X181.586Y-135.866
X184.126Y-131.466
X191.111Y-119.368
X193.651Y-114.968
T6
X192.405Y-21.59
X192.405Y-24.13
X192.405Y-26.67
X192.405Y-29.21
X192.405Y-31.75
X192.405Y-34.29
X192.405Y-36.83
X192.405Y-39.37
X192.405Y-41.91
X192.405Y-44.45
X192.405Y-46.99
X192.405Y-49.53
X192.405Y-52.07
X192.405Y-54.61
X192.405Y-57.15
X192.405Y-59.69
X192.405Y-62.23
X192.405Y-64.77
X192.405Y-67.31
X192.405Y-69.85
X198.755Y-69.62
X201.295Y-69.62
X203.835Y-69.62
X210.185Y-21.59
X210.185Y-24.13
X210.185Y-26.67
X210.185Y-29.21
X210.185Y-31.75
X210.185Y-34.29
X210.185Y-36.83
X210.185Y-39.37
X210.185Y-41.91
X210.185Y-44.45
X210.185Y-46.99
X210.185Y-49.53
X210.185Y-52.07
X210.185Y-54.61
X210.185Y-57.15
X210.185Y-59.69
X210.185Y-62.23
X210.185Y-64.77
X210.185Y-67.31
X210.185Y-69.85
T7
X38.649Y-47.922
X43.748Y-43.363
X45.165Y-65.823
X50.263Y-61.265
X51.68Y-83.724
X56.551Y-41.407
X56.779Y-79.166
X61.649Y-36.848
X63.066Y-59.308
X68.164Y-54.749
X69.582Y-77.209
X74.452Y-34.891
X74.68Y-72.65
X79.55Y-30.333
X80.967Y-52.792
X86.066Y-48.234
X87.483Y-70.693
X92.581Y-66.135
X109.855Y-27.305
X109.855Y-46.355
X109.855Y-65.405
X116.205Y-24.765
X116.205Y-43.815
X116.205Y-62.865
X128.905Y-27.305
X128.905Y-46.355
X128.905Y-65.405
X133.549Y-116.197
X135.255Y-24.765
X135.255Y-43.815
X135.255Y-62.865
X140.318Y-117.173
X143.074Y-99.699
X147.955Y-27.305
X147.955Y-46.355
X147.955Y-65.405
X149.843Y-100.675
X150.047Y-125.722
X154.305Y-24.765
X154.305Y-43.815
X154.305Y-62.865
X156.816Y-126.698
X159.572Y-109.224
X166.341Y-110.2
X166.545Y-135.247
X167.005Y-27.305
X167.005Y-46.355
X167.005Y-65.405
X169.097Y-92.727
X173.314Y-136.223
X173.355Y-24.765
X173.355Y-43.815
X173.355Y-62.865
X175.866Y-93.702
X176.07Y-118.749
X182.839Y-119.725
X185.595Y-102.252
X192.364Y-103.227
T8
X95.39Y-25.4
X95.39Y-92.71
X180.34Y-154.305
X213.995Y-84.76
M30
