M48
; DRILL file {KiCad 9.0.2} date 2025-06-09T23:03:06-0500
; FORMAT={-:-/ absolute / metric / decimal}
; #@! TF.CreationDate,2025-06-09T23:03:06-05:00
; #@! TF.GenerationSoftware,Kicad,Pcbnew,9.0.2
; #@! TF.FileFunction,NonPlated,1,2,NPTH
FMAT,2
METRIC
; #@! TA.AperFunction,NonPlated,NPTH,ComponentDrill
T1C1.500
; #@! TA.AperFunction,NonPlated,NPTH,ComponentDrill
T2C1.750
; #@! TA.AperFunction,NonPlated,NPTH,ComponentDrill
T3C1.800
; #@! TA.AperFunction,NonPlated,NPTH,ComponentDrill
T4C3.988
%
G90
G05
T1
X198.87Y-24.75
X203.72Y-24.75
T2
X38.325Y-50.743
X44.84Y-68.644
X47.872Y-47.268
X51.356Y-86.546
X54.388Y-65.17
X56.226Y-44.228
X60.903Y-83.071
X62.741Y-62.129
X65.773Y-40.753
X69.257Y-80.03
X72.289Y-58.654
X74.127Y-37.712
X78.804Y-76.555
X80.643Y-55.613
X83.674Y-34.237
X87.158Y-73.515
X90.19Y-52.139
X96.705Y-70.04
X108.585Y-29.845
X108.585Y-48.895
X108.585Y-67.945
X118.745Y-29.845
X118.745Y-48.895
X118.745Y-67.945
X127.635Y-29.845
X127.635Y-48.895
X127.635Y-67.945
X131.179Y-117.762
X137.795Y-29.845
X137.795Y-48.895
X137.795Y-67.945
X139.978Y-122.842
X140.704Y-101.264
X146.685Y-29.845
X146.685Y-48.895
X146.685Y-67.945
X147.677Y-127.287
X149.503Y-106.344
X156.476Y-132.367
X156.845Y-29.845
X156.845Y-48.895
X156.845Y-67.945
X157.202Y-110.789
X164.175Y-136.812
X165.735Y-29.845
X165.735Y-48.895
X165.735Y-67.945
X166.001Y-115.869
X166.727Y-94.291
X172.974Y-141.892
X173.7Y-120.314
X175.526Y-99.371
X175.895Y-29.845
X175.895Y-48.895
X175.895Y-67.945
X182.499Y-125.394
X183.225Y-103.816
X192.024Y-108.896
T3
X198.57Y-21.72
X204.02Y-21.72
T4
X43.098Y-49.006
X49.614Y-66.907
X56.129Y-84.808
X61.0Y-42.49
X67.515Y-60.392
X74.031Y-78.293
X78.901Y-35.975
X85.416Y-53.876
X91.932Y-71.777
X113.665Y-29.845
X113.665Y-48.895
X113.665Y-67.945
X132.715Y-29.845
X132.715Y-48.895
X132.715Y-67.945
X135.579Y-120.302
X145.104Y-103.804
X151.765Y-29.845
X151.765Y-48.895
X151.765Y-67.945
X152.076Y-129.827
X161.601Y-113.329
X168.574Y-139.352
X170.815Y-29.845
X170.815Y-48.895
X170.815Y-67.945
X171.126Y-96.831
X178.099Y-122.854
X187.624Y-106.356
M30
