%TF.GenerationSoftware,KiCad,Pcbnew,9.0.2*%
%TF.CreationDate,2025-06-09T23:02:59-05:00*%
%TF.ProjectId,keyboard,6b657962-6f61-4726-942e-6b696361645f,rev?*%
%TF.SameCoordinates,Original*%
%TF.FileFunction,Soldermask,Bot*%
%TF.FilePolarity,Negative*%
%FSLAX46Y46*%
G04 Gerber Fmt 4.6, Leading zero omitted, Abs format (unit mm)*
G04 Created by KiCad (PCBNEW 9.0.2) date 2025-06-09 23:03:00*
%MOMM*%
%LPD*%
G01*
G04 APERTURE LIST*
G04 Aperture macros list*
%AMRoundRect*
0 Rectangle with rounded corners*
0 $1 Rounding radius*
0 $2 $3 $4 $5 $6 $7 $8 $9 X,Y pos of 4 corners*
0 Add a 4 corners polygon primitive as box body*
4,1,4,$2,$3,$4,$5,$6,$7,$8,$9,$2,$3,0*
0 Add four circle primitives for the rounded corners*
1,1,$1+$1,$2,$3*
1,1,$1+$1,$4,$5*
1,1,$1+$1,$6,$7*
1,1,$1+$1,$8,$9*
0 Add four rect primitives between the rounded corners*
20,1,$1+$1,$2,$3,$4,$5,0*
20,1,$1+$1,$4,$5,$6,$7,0*
20,1,$1+$1,$6,$7,$8,$9,0*
20,1,$1+$1,$8,$9,$2,$3,0*%
%AMRotRect*
0 Rectangle, with rotation*
0 The origin of the aperture is its center*
0 $1 length*
0 $2 width*
0 $3 Rotation angle, in degrees counterclockwise*
0 Add horizontal line*
21,1,$1,$2,0,0,$3*%
G04 Aperture macros list end*
%ADD10O,1.800000X1.800000*%
%ADD11O,1.500000X1.500000*%
%ADD12O,1.700000X1.700000*%
%ADD13R,1.700000X1.700000*%
%ADD14C,0.800000*%
%ADD15C,6.400000*%
%ADD16C,1.750000*%
%ADD17C,3.987800*%
%ADD18C,2.300000*%
%ADD19RotRect,1.800000X1.800000X60.000000*%
%ADD20C,1.800000*%
%ADD21C,1.400000*%
%ADD22RoundRect,0.250000X0.750000X-0.750000X0.750000X0.750000X-0.750000X0.750000X-0.750000X-0.750000X0*%
%ADD23C,2.000000*%
%ADD24RoundRect,0.250000X0.274519X-1.024519X1.024519X0.274519X-0.274519X1.024519X-1.024519X-0.274519X0*%
%ADD25RoundRect,0.250000X0.961285X-0.448254X0.448254X0.961285X-0.961285X0.448254X-0.448254X-0.961285X0*%
G04 APERTURE END LIST*
D10*
%TO.C,U1*%
X198570000Y-21720000D03*
D11*
X198870000Y-24750000D03*
X203720000Y-24750000D03*
D10*
X204020000Y-21720000D03*
D12*
X192405000Y-21590000D03*
X192405000Y-24130000D03*
D13*
X192405000Y-26670000D03*
D12*
X192405000Y-29210000D03*
X192405000Y-31750000D03*
X192405000Y-34290000D03*
X192405000Y-36830000D03*
D13*
X192405000Y-39370000D03*
D12*
X192405000Y-41910000D03*
X192405000Y-44450000D03*
X192405000Y-46990000D03*
X192405000Y-49530000D03*
D13*
X192405000Y-52070000D03*
D12*
X192405000Y-54610000D03*
X192405000Y-57150000D03*
X192405000Y-59690000D03*
X192405000Y-62230000D03*
D13*
X192405000Y-64770000D03*
D12*
X192405000Y-67310000D03*
X192405000Y-69850000D03*
X210185000Y-69850000D03*
X210185000Y-67310000D03*
D13*
X210185000Y-64770000D03*
D12*
X210185000Y-62230000D03*
X210185000Y-59690000D03*
X210185000Y-57150000D03*
X210185000Y-54610000D03*
D13*
X210185000Y-52070000D03*
D12*
X210185000Y-49530000D03*
X210185000Y-46990000D03*
X210185000Y-44450000D03*
X210185000Y-41910000D03*
D13*
X210185000Y-39370000D03*
D12*
X210185000Y-36830000D03*
X210185000Y-34290000D03*
X210185000Y-31750000D03*
X210185000Y-29210000D03*
D13*
X210185000Y-26670000D03*
D12*
X210185000Y-24130000D03*
X210185000Y-21590000D03*
X198755000Y-69620000D03*
D13*
X201295000Y-69620000D03*
D12*
X203835000Y-69620000D03*
%TD*%
D14*
%TO.C,H4*%
X177940000Y-154305000D03*
X178642944Y-152607944D03*
X178642944Y-156002056D03*
X180340000Y-151905000D03*
D15*
X180340000Y-154305000D03*
D14*
X180340000Y-156705000D03*
X182037056Y-152607944D03*
X182037056Y-156002056D03*
X182740000Y-154305000D03*
%TD*%
%TO.C,H3*%
X211595000Y-84760000D03*
X212297944Y-83062944D03*
X212297944Y-86457056D03*
X213995000Y-82360000D03*
D15*
X213995000Y-84760000D03*
D14*
X213995000Y-87160000D03*
X215692056Y-83062944D03*
X215692056Y-86457056D03*
X216395000Y-84760000D03*
%TD*%
%TO.C,H2*%
X92990000Y-92710000D03*
X93692944Y-91012944D03*
X93692944Y-94407056D03*
X95390000Y-90310000D03*
D15*
X95390000Y-92710000D03*
D14*
X95390000Y-95110000D03*
X97087056Y-91012944D03*
X97087056Y-94407056D03*
X97790000Y-92710000D03*
%TD*%
%TO.C,H1*%
X92990000Y-25400000D03*
X93692944Y-23702944D03*
X93692944Y-27097056D03*
X95390000Y-23000000D03*
D15*
X95390000Y-25400000D03*
D14*
X95390000Y-27800000D03*
X97087056Y-23702944D03*
X97087056Y-27097056D03*
X97790000Y-25400000D03*
%TD*%
D16*
%TO.C,MX3*%
X74127091Y-37712341D03*
D17*
X78900730Y-35974879D03*
D16*
X83674369Y-34237417D03*
D18*
X74451770Y-34891156D03*
X79550087Y-30332509D03*
%TD*%
D16*
%TO.C,MX10*%
X108585000Y-29845000D03*
D17*
X113665000Y-29845000D03*
D16*
X118745000Y-29845000D03*
D18*
X109855000Y-27305000D03*
X116205000Y-24765000D03*
%TD*%
D16*
%TO.C,MX25*%
X166726995Y-94291404D03*
D17*
X171126404Y-96831404D03*
D16*
X175525813Y-99371404D03*
D18*
X169096847Y-92726699D03*
X175866109Y-93701995D03*
%TD*%
D19*
%TO.C,D22*%
X202565000Y-116694285D03*
D20*
X203835000Y-114494580D03*
%TD*%
D19*
%TO.C,D32*%
X183515000Y-149689853D03*
D20*
X184785000Y-147490148D03*
%TD*%
D16*
%TO.C,MX29*%
X173699779Y-120314188D03*
D17*
X178099188Y-122854188D03*
D16*
X182498597Y-125394188D03*
D18*
X176069631Y-118749483D03*
X182838893Y-119724779D03*
%TD*%
D16*
%TO.C,MX15*%
X127635000Y-67945000D03*
D17*
X132715000Y-67945000D03*
D16*
X137795000Y-67945000D03*
D18*
X128905000Y-65405000D03*
X135255000Y-62865000D03*
%TD*%
D21*
%TO.C,R2*%
X198120000Y-124393251D03*
X195580000Y-128792660D03*
%TD*%
D16*
%TO.C,MX19*%
X165735000Y-29845000D03*
D17*
X170815000Y-29845000D03*
D16*
X175895000Y-29845000D03*
D18*
X167005000Y-27305000D03*
X173355000Y-24765000D03*
%TD*%
D16*
%TO.C,MX16*%
X146685000Y-29845000D03*
D17*
X151765000Y-29845000D03*
D16*
X156845000Y-29845000D03*
D18*
X147955000Y-27305000D03*
X154305000Y-24765000D03*
%TD*%
D16*
%TO.C,MX4*%
X44840286Y-68644453D03*
D17*
X49613925Y-66906991D03*
D16*
X54387564Y-65169529D03*
D18*
X45164965Y-65823268D03*
X50263282Y-61264621D03*
%TD*%
D16*
%TO.C,MX17*%
X146685000Y-48895000D03*
D17*
X151765000Y-48895000D03*
D16*
X156845000Y-48895000D03*
D18*
X147955000Y-46355000D03*
X154305000Y-43815000D03*
%TD*%
D16*
%TO.C,MX8*%
X69256914Y-80030113D03*
D17*
X74030553Y-78292651D03*
D16*
X78804192Y-76555189D03*
D18*
X69581593Y-77208928D03*
X74679910Y-72650281D03*
%TD*%
D16*
%TO.C,MX23*%
X140704211Y-101264188D03*
D17*
X145103620Y-103804188D03*
D16*
X149503029Y-106344188D03*
D18*
X143074063Y-99699483D03*
X149843325Y-100674779D03*
%TD*%
D16*
%TO.C,MX18*%
X146685000Y-67945000D03*
D17*
X151765000Y-67945000D03*
D16*
X156845000Y-67945000D03*
D18*
X147955000Y-65405000D03*
X154305000Y-62865000D03*
%TD*%
D16*
%TO.C,MX24*%
X131179211Y-117761972D03*
D17*
X135578620Y-120301972D03*
D16*
X139978029Y-122841972D03*
D18*
X133549063Y-116197267D03*
X140318325Y-117172563D03*
%TD*%
D16*
%TO.C,MX9*%
X87158058Y-73514629D03*
D17*
X91931697Y-71777167D03*
D16*
X96705336Y-70039705D03*
D18*
X87482737Y-70693444D03*
X92581054Y-66134797D03*
%TD*%
D16*
%TO.C,MX20*%
X165735000Y-48895000D03*
D17*
X170815000Y-48895000D03*
D16*
X175895000Y-48895000D03*
D18*
X167005000Y-46355000D03*
X173355000Y-43815000D03*
%TD*%
D21*
%TO.C,R1*%
X207645000Y-107895467D03*
X205105000Y-112294876D03*
%TD*%
D16*
%TO.C,MX11*%
X108585000Y-48895000D03*
D17*
X113665000Y-48895000D03*
D16*
X118745000Y-48895000D03*
D18*
X109855000Y-46355000D03*
X116205000Y-43815000D03*
%TD*%
D19*
%TO.C,D31*%
X193040000Y-133192069D03*
D20*
X194310000Y-130992364D03*
%TD*%
D21*
%TO.C,R3*%
X188912500Y-140341109D03*
X186372500Y-144740518D03*
%TD*%
D16*
%TO.C,MX6*%
X80642575Y-55613485D03*
D17*
X85416214Y-53876023D03*
D16*
X90189853Y-52138561D03*
D18*
X80967254Y-52792300D03*
X86065571Y-48233653D03*
%TD*%
D16*
%TO.C,MX12*%
X108585000Y-67945000D03*
D17*
X113665000Y-67945000D03*
D16*
X118745000Y-67945000D03*
D18*
X109855000Y-65405000D03*
X116205000Y-62865000D03*
%TD*%
D16*
%TO.C,MX7*%
X51355770Y-86545597D03*
D17*
X56129409Y-84808135D03*
D16*
X60903048Y-83070673D03*
D18*
X51680449Y-83724412D03*
X56778766Y-79165765D03*
%TD*%
D16*
%TO.C,MX30*%
X164174779Y-136811972D03*
D17*
X168574188Y-139351972D03*
D16*
X172973597Y-141891972D03*
D18*
X166544631Y-135247267D03*
X173313893Y-136222563D03*
%TD*%
D16*
%TO.C,MX27*%
X147676995Y-127286972D03*
D17*
X152076404Y-129826972D03*
D16*
X156475813Y-132366972D03*
D18*
X150046847Y-125722267D03*
X156816109Y-126697563D03*
%TD*%
D16*
%TO.C,MX2*%
X56225947Y-44227824D03*
D17*
X60999586Y-42490362D03*
D16*
X65773225Y-40752900D03*
D18*
X56550626Y-41406639D03*
X61648943Y-36847992D03*
%TD*%
D16*
%TO.C,MX26*%
X157201995Y-110789188D03*
D17*
X161601404Y-113329188D03*
D16*
X166000813Y-115869188D03*
D18*
X159571847Y-109224483D03*
X166341109Y-110199779D03*
%TD*%
D16*
%TO.C,MX21*%
X165735000Y-67945000D03*
D17*
X170815000Y-67945000D03*
D16*
X175895000Y-67945000D03*
D18*
X167005000Y-65405000D03*
X173355000Y-62865000D03*
%TD*%
D16*
%TO.C,MX1*%
X38324802Y-50743308D03*
D17*
X43098441Y-49005846D03*
D16*
X47872080Y-47268384D03*
D18*
X38649481Y-47922123D03*
X43747798Y-43363476D03*
%TD*%
D16*
%TO.C,MX5*%
X62741430Y-62128969D03*
D17*
X67515069Y-60391507D03*
D16*
X72288708Y-58654045D03*
D18*
X63066109Y-59307784D03*
X68164426Y-54749137D03*
%TD*%
D16*
%TO.C,MX28*%
X183224779Y-103816404D03*
D17*
X187624188Y-106356404D03*
D16*
X192023597Y-108896404D03*
D18*
X185594631Y-102251699D03*
X192363893Y-103226995D03*
%TD*%
D16*
%TO.C,MX14*%
X127635000Y-48895000D03*
D17*
X132715000Y-48895000D03*
D16*
X137795000Y-48895000D03*
D18*
X128905000Y-46355000D03*
X135255000Y-43815000D03*
%TD*%
D16*
%TO.C,MX13*%
X127635000Y-29845000D03*
D17*
X132715000Y-29845000D03*
D16*
X137795000Y-29845000D03*
D18*
X128905000Y-27305000D03*
X135255000Y-24765000D03*
%TD*%
D22*
%TO.C,D13*%
X142240000Y-39370000D03*
D23*
X142240000Y-34290000D03*
%TD*%
D22*
%TO.C,D19*%
X180340000Y-39370000D03*
D23*
X180340000Y-34290000D03*
%TD*%
D24*
%TO.C,D23*%
X148590012Y-116815580D03*
D23*
X151130012Y-112416171D03*
%TD*%
D25*
%TO.C,D9*%
X104140012Y-77469998D03*
D23*
X102402550Y-72696359D03*
%TD*%
D25*
%TO.C,D6*%
X97624528Y-59568853D03*
D23*
X95887066Y-54795214D03*
%TD*%
D24*
%TO.C,D24*%
X139065012Y-133313364D03*
D23*
X141605012Y-128913955D03*
%TD*%
D22*
%TO.C,D14*%
X142240000Y-58420000D03*
D23*
X142240000Y-53340000D03*
%TD*%
D25*
%TO.C,D8*%
X86238867Y-83985482D03*
D23*
X84501405Y-79211843D03*
%TD*%
D24*
%TO.C,D25*%
X174612796Y-109842796D03*
D23*
X177152796Y-105443387D03*
%TD*%
D24*
%TO.C,D28*%
X191110580Y-119367796D03*
D23*
X193650580Y-114968387D03*
%TD*%
D22*
%TO.C,D17*%
X161290000Y-58420000D03*
D23*
X161290000Y-53340000D03*
%TD*%
D25*
%TO.C,D3*%
X91109044Y-41667709D03*
D23*
X89371582Y-36894070D03*
%TD*%
D22*
%TO.C,D21*%
X180340000Y-77470000D03*
D23*
X180340000Y-72390000D03*
%TD*%
D24*
%TO.C,D30*%
X172060580Y-152363364D03*
D23*
X174600580Y-147963955D03*
%TD*%
D24*
%TO.C,D26*%
X165087796Y-126340580D03*
D23*
X167627796Y-121941171D03*
%TD*%
D25*
%TO.C,D2*%
X73207900Y-48183193D03*
D23*
X71470438Y-43409554D03*
%TD*%
D22*
%TO.C,D12*%
X123190000Y-77470000D03*
D23*
X123190000Y-72390000D03*
%TD*%
D25*
%TO.C,D4*%
X61822239Y-72599821D03*
D23*
X60084777Y-67826182D03*
%TD*%
D22*
%TO.C,D18*%
X161290000Y-77470000D03*
D23*
X161290000Y-72390000D03*
%TD*%
D22*
%TO.C,D20*%
X180340000Y-58420000D03*
D23*
X180340000Y-53340000D03*
%TD*%
D24*
%TO.C,D27*%
X155562796Y-142838364D03*
D23*
X158102796Y-138438955D03*
%TD*%
D24*
%TO.C,D29*%
X181585580Y-135865580D03*
D23*
X184125580Y-131466171D03*
%TD*%
D22*
%TO.C,D10*%
X123190000Y-39370000D03*
D23*
X123190000Y-34290000D03*
%TD*%
D25*
%TO.C,D5*%
X79723383Y-66084337D03*
D23*
X77985921Y-61310698D03*
%TD*%
D25*
%TO.C,D7*%
X68337723Y-90500965D03*
D23*
X66600261Y-85727326D03*
%TD*%
D22*
%TO.C,D11*%
X123190000Y-58420000D03*
D23*
X123190000Y-53340000D03*
%TD*%
D25*
%TO.C,D1*%
X55306755Y-53779485D03*
D23*
X53569293Y-49005846D03*
%TD*%
D22*
%TO.C,D15*%
X142240000Y-77470000D03*
D23*
X142240000Y-72390000D03*
%TD*%
D22*
%TO.C,D16*%
X161290000Y-39370000D03*
D23*
X161290000Y-34290000D03*
%TD*%
M02*
